<svg width="200" height="200" viewBox="0 0 200 200" xmlns="http://www.w3.org/2000/svg">
  <!-- Cat Body -->
  <ellipse cx="100" cy="120" rx="50" ry="60" fill="#FF8C42" stroke="#333" stroke-width="2"/>

  <!-- Cat Head -->
  <circle cx="100" cy="70" r="35" fill="#FF8C42" stroke="#333" stroke-width="2"/>

  <!-- Left Ear -->
  <polygon points="75,45 70,20 85,40" fill="#FF8C42" stroke="#333" stroke-width="2"/>
  <polygon points="75,45 72,30 82,42" fill="#FFB380"/>

  <!-- Right Ear -->
  <polygon points="125,45 130,20 115,40" fill="#FF8C42" stroke="#333" stroke-width="2"/>
  <polygon points="125,45 128,30 118,42" fill="#FFB380"/>

  <!-- Left Eye -->
  <ellipse cx="88" cy="68" rx="8" ry="12" fill="#333"/>
  <ellipse cx="89" cy="66" rx="3" ry="5" fill="white"/>

  <!-- Right Eye -->
  <ellipse cx="112" cy="68" rx="8" ry="12" fill="#333"/>
  <ellipse cx="113" cy="66" rx="3" ry="5" fill="white"/>

  <!-- Nose -->
  <polygon points="100,78 97,82 103,82" fill="#FF6B9D"/>

  <!-- Mouth -->
  <path d="M 100 82 Q 95 88 90 86" stroke="#333" stroke-width="1.5" fill="none"/>
  <path d="M 100 82 Q 105 88 110 86" stroke="#333" stroke-width="1.5" fill="none"/>

  <!-- Whiskers Left -->
  <line x1="70" y1="72" x2="50" y2="70" stroke="#333" stroke-width="1"/>
  <line x1="70" y1="76" x2="48" y2="78" stroke="#333" stroke-width="1"/>
  <line x1="70" y1="80" x2="50" y2="84" stroke="#333" stroke-width="1"/>

  <!-- Whiskers Right -->
  <line x1="130" y1="72" x2="150" y2="70" stroke="#333" stroke-width="1"/>
  <line x1="130" y1="76" x2="152" y2="78" stroke="#333" stroke-width="1"/>
  <line x1="130" y1="80" x2="150" y2="84" stroke="#333" stroke-width="1"/>

  <!-- Chest/Belly -->
  <ellipse cx="100" cy="130" rx="25" ry="35" fill="#FFD6A5"/>

  <!-- Left Arm -->
  <ellipse cx="70" cy="110" rx="12" ry="30" fill="#FF8C42" stroke="#333" stroke-width="2" transform="rotate(-20 70 110)"/>

  <!-- Right Arm -->
  <ellipse cx="130" cy="110" rx="12" ry="30" fill="#FF8C42" stroke="#333" stroke-width="2" transform="rotate(20 130 110)"/>

  <!-- Left Leg -->
  <ellipse cx="85" cy="165" rx="10" ry="25" fill="#FF8C42" stroke="#333" stroke-width="2"/>
  <ellipse cx="85" cy="185" rx="12" ry="8" fill="#FF8C42" stroke="#333" stroke-width="2"/>

  <!-- Right Leg -->
  <ellipse cx="115" cy="165" rx="10" ry="25" fill="#FF8C42" stroke="#333" stroke-width="2"/>
  <ellipse cx="115" cy="185" rx="12" ry="8" fill="#FF8C42" stroke="#333" stroke-width="2"/>

  <!-- Tail -->
  <path d="M 145 140 Q 170 130 175 110 Q 178 90 170 75" stroke="#FF8C42" stroke-width="18" fill="none" stroke-linecap="round"/>
  <path d="M 145 140 Q 170 130 175 110 Q 178 90 170 75" stroke="#333" stroke-width="2" fill="none"/>
</svg>
